# ProBuilder 5.2.2
# https://unity3d.com/unity/features/worldbuilding/probuilder
# 17.06.2024 1:32:05

mtllib ./Floor.mtl
o Floor

g Floor
v 0.5 -0.5 0.5
v -0.5 -0.5 0.5
v 0.5 0.25 0.5
v -0.5 0.25 0.5
v -0.5 -0.5 -0.5
v -0.5 0.25 -0.5
v 0.5 -0.5 -0.5
v 0.5 0.25 -0.5
v 0.5 0.5 0.5
v -0.5 0.5 0.5
v 0.5 0.5 -0.5
v -0.5 0.5 -0.5

vt 0.5 -0.5
vt -0.5 -0.5
vt 0.5 0.25
vt -0.5 0.25
vt -0.5 0.5
vt 0.5 0.5

vn 0 0 1
vn -1 0 0
vn 0 0 -1
vn 1 0 0
vn 0 1 0
vn 0 -1 0

usemtl Floor_2
f 3/3/1 4/4/1 2/2/1 1/1/1
f 4/3/2 6/4/2 5/2/2 2/1/2
f 6/3/3 8/4/3 7/2/3 5/1/3
f 8/3/4 3/4/4 1/2/4 7/1/4
f 1/6/6 2/5/6 5/2/6 7/1/6

usemtl Floor_1
f 11/2/5 12/1/5 10/6/5 9/5/5
f 9/6/1 10/5/1 4/4/1 3/3/1
f 11/6/4 9/5/4 3/4/4 8/3/4
f 10/6/2 12/5/2 6/4/2 4/3/2
f 12/6/3 11/5/3 8/4/3 6/3/3

