# ProBuilder 5.2.2
# https://unity3d.com/unity/features/worldbuilding/probuilder
# 17.06.2024 1:36:05

mtllib ./RoofCorner.mtl
o RoofCorner

g RoofCorner
v 0.5 -0.5 0.4999999
v 0.4999999 -0.5 -0.5
v 0.4999999 0 0
v -0.5 -0.5 -0.5
v -0.5 0 0
v -0.5 -0.5 0.5

vt -0.4999999 -0.5
vt 0.4999999 -0.5
vt -5.960464E-08 -7.105427E-15
vt -0.4999999 -0.7071068
vt 0.5 -0.7071068
vt -0.4999999 0
vt 0.5 0
vt -0.5 -0.5
vt 0.5 -0.5
vt -0.5 -0.7071068
vt 0.4999999 -0.7071068
vt -0.5 4.214685E-08
vt 0.4999999 -4.214685E-08
vt 0.5 0.4999999
vt -0.5 0.5

vn 1 1.421086E-14 -1.192093E-07
vn 0 0.7071068 -0.7071068
vn -1 -2.980232E-08 2.980232E-08
vn 8.42937E-08 0.7071068 0.7071068
vn 0 -1 0

usemtl Roof
f 1/1/1 2/2/1 3/3/1
f 4/8/3 6/9/3 5/3/3
f 3/6/2 2/4/2 4/5/2
f 4/5/2 5/7/2 3/6/2
f 5/12/4 6/10/4 1/11/4
f 1/11/4 3/13/4 5/12/4
f 4/8/5 2/2/5 1/14/5
f 1/14/5 6/15/5 4/8/5

